<?xml version='1.0' encoding='utf-8'?>
<svg xmlns="http://www.w3.org/2000/svg" xmlns:xlink="http://www.w3.org/1999/xlink" id="chart-3118155d-6221-41bd-ad05-2e85ca7efbf8" class="pygal-chart" viewBox="0 0 800 600"><!--Generated with pygal 2.4.0 (lxml) ©Kozea 2012-2016 on 2020-12-01--><!--http://pygal.org--><!--http://github.com/Kozea/pygal--><defs><style type="text/css">#chart-3118155d-6221-41bd-ad05-2e85ca7efbf8{-webkit-user-select:none;-webkit-font-smoothing:antialiased;font-family:Consolas,"Liberation Mono",Menlo,Courier,monospace}#chart-3118155d-6221-41bd-ad05-2e85ca7efbf8 .title{font-family:Consolas,"Liberation Mono",Menlo,Courier,monospace;font-size:16px}#chart-3118155d-6221-41bd-ad05-2e85ca7efbf8 .legends .legend text{font-family:Consolas,"Liberation Mono",Menlo,Courier,monospace;font-size:14px}#chart-3118155d-6221-41bd-ad05-2e85ca7efbf8 .axis text{font-family:Consolas,"Liberation Mono",Menlo,Courier,monospace;font-size:10px}#chart-3118155d-6221-41bd-ad05-2e85ca7efbf8 .axis text.major{font-family:Consolas,"Liberation Mono",Menlo,Courier,monospace;font-size:10px}#chart-3118155d-6221-41bd-ad05-2e85ca7efbf8 .text-overlay text.value{font-family:Consolas,"Liberation Mono",Menlo,Courier,monospace;font-size:16px}#chart-3118155d-6221-41bd-ad05-2e85ca7efbf8 .text-overlay text.label{font-family:Consolas,"Liberation Mono",Menlo,Courier,monospace;font-size:10px}#chart-3118155d-6221-41bd-ad05-2e85ca7efbf8 .tooltip{font-family:Consolas,"Liberation Mono",Menlo,Courier,monospace;font-size:14px}#chart-3118155d-6221-41bd-ad05-2e85ca7efbf8 text.no_data{font-family:Consolas,"Liberation Mono",Menlo,Courier,monospace;font-size:64px}
#chart-3118155d-6221-41bd-ad05-2e85ca7efbf8{background-color:rgba(249,249,249,1)}#chart-3118155d-6221-41bd-ad05-2e85ca7efbf8 path,#chart-3118155d-6221-41bd-ad05-2e85ca7efbf8 line,#chart-3118155d-6221-41bd-ad05-2e85ca7efbf8 rect,#chart-3118155d-6221-41bd-ad05-2e85ca7efbf8 circle{-webkit-transition:150ms;-moz-transition:150ms;transition:150ms}#chart-3118155d-6221-41bd-ad05-2e85ca7efbf8 .graph &gt; .background{fill:rgba(249,249,249,1)}#chart-3118155d-6221-41bd-ad05-2e85ca7efbf8 .plot &gt; .background{fill:rgba(255,255,255,1)}#chart-3118155d-6221-41bd-ad05-2e85ca7efbf8 .graph{fill:rgba(0,0,0,.87)}#chart-3118155d-6221-41bd-ad05-2e85ca7efbf8 text.no_data{fill:rgba(0,0,0,1)}#chart-3118155d-6221-41bd-ad05-2e85ca7efbf8 .title{fill:rgba(0,0,0,1)}#chart-3118155d-6221-41bd-ad05-2e85ca7efbf8 .legends .legend text{fill:rgba(0,0,0,.87)}#chart-3118155d-6221-41bd-ad05-2e85ca7efbf8 .legends .legend:hover text{fill:rgba(0,0,0,1)}#chart-3118155d-6221-41bd-ad05-2e85ca7efbf8 .axis .line{stroke:rgba(0,0,0,1)}#chart-3118155d-6221-41bd-ad05-2e85ca7efbf8 .axis .guide.line{stroke:rgba(0,0,0,.54)}#chart-3118155d-6221-41bd-ad05-2e85ca7efbf8 .axis .major.line{stroke:rgba(0,0,0,.87)}#chart-3118155d-6221-41bd-ad05-2e85ca7efbf8 .axis text.major{fill:rgba(0,0,0,1)}#chart-3118155d-6221-41bd-ad05-2e85ca7efbf8 .axis.y .guides:hover .guide.line,#chart-3118155d-6221-41bd-ad05-2e85ca7efbf8 .line-graph .axis.x .guides:hover .guide.line,#chart-3118155d-6221-41bd-ad05-2e85ca7efbf8 .stackedline-graph .axis.x .guides:hover .guide.line,#chart-3118155d-6221-41bd-ad05-2e85ca7efbf8 .xy-graph .axis.x .guides:hover .guide.line{stroke:rgba(0,0,0,1)}#chart-3118155d-6221-41bd-ad05-2e85ca7efbf8 .axis .guides:hover text{fill:rgba(0,0,0,1)}#chart-3118155d-6221-41bd-ad05-2e85ca7efbf8 .reactive{fill-opacity:.7;stroke-opacity:.8}#chart-3118155d-6221-41bd-ad05-2e85ca7efbf8 .ci{stroke:rgba(0,0,0,.87)}#chart-3118155d-6221-41bd-ad05-2e85ca7efbf8 .reactive.active,#chart-3118155d-6221-41bd-ad05-2e85ca7efbf8 .active .reactive{fill-opacity:.8;stroke-opacity:.9;stroke-width:4}#chart-3118155d-6221-41bd-ad05-2e85ca7efbf8 .ci .reactive.active{stroke-width:1.5}#chart-3118155d-6221-41bd-ad05-2e85ca7efbf8 .series text{fill:rgba(0,0,0,1)}#chart-3118155d-6221-41bd-ad05-2e85ca7efbf8 .tooltip rect{fill:rgba(255,255,255,1);stroke:rgba(0,0,0,1);-webkit-transition:opacity 150ms;-moz-transition:opacity 150ms;transition:opacity 150ms}#chart-3118155d-6221-41bd-ad05-2e85ca7efbf8 .tooltip .label{fill:rgba(0,0,0,.87)}#chart-3118155d-6221-41bd-ad05-2e85ca7efbf8 .tooltip .label{fill:rgba(0,0,0,.87)}#chart-3118155d-6221-41bd-ad05-2e85ca7efbf8 .tooltip .legend{font-size:.8em;fill:rgba(0,0,0,.54)}#chart-3118155d-6221-41bd-ad05-2e85ca7efbf8 .tooltip .x_label{font-size:.6em;fill:rgba(0,0,0,1)}#chart-3118155d-6221-41bd-ad05-2e85ca7efbf8 .tooltip .xlink{font-size:.5em;text-decoration:underline}#chart-3118155d-6221-41bd-ad05-2e85ca7efbf8 .tooltip .value{font-size:1.5em}#chart-3118155d-6221-41bd-ad05-2e85ca7efbf8 .bound{font-size:.5em}#chart-3118155d-6221-41bd-ad05-2e85ca7efbf8 .max-value{font-size:.75em;fill:rgba(0,0,0,.54)}#chart-3118155d-6221-41bd-ad05-2e85ca7efbf8 .map-element{fill:rgba(255,255,255,1);stroke:rgba(0,0,0,.54) !important}#chart-3118155d-6221-41bd-ad05-2e85ca7efbf8 .map-element .reactive{fill-opacity:inherit;stroke-opacity:inherit}#chart-3118155d-6221-41bd-ad05-2e85ca7efbf8 .color-0,#chart-3118155d-6221-41bd-ad05-2e85ca7efbf8 .color-0 a:visited{stroke:#F44336;fill:#F44336}#chart-3118155d-6221-41bd-ad05-2e85ca7efbf8 .color-1,#chart-3118155d-6221-41bd-ad05-2e85ca7efbf8 .color-1 a:visited{stroke:#3F51B5;fill:#3F51B5}#chart-3118155d-6221-41bd-ad05-2e85ca7efbf8 .color-2,#chart-3118155d-6221-41bd-ad05-2e85ca7efbf8 .color-2 a:visited{stroke:#009688;fill:#009688}#chart-3118155d-6221-41bd-ad05-2e85ca7efbf8 .text-overlay .color-0 text{fill:black}#chart-3118155d-6221-41bd-ad05-2e85ca7efbf8 .text-overlay .color-1 text{fill:black}#chart-3118155d-6221-41bd-ad05-2e85ca7efbf8 .text-overlay .color-2 text{fill:black}
#chart-3118155d-6221-41bd-ad05-2e85ca7efbf8 text.no_data{text-anchor:middle}#chart-3118155d-6221-41bd-ad05-2e85ca7efbf8 .guide.line{fill:none}#chart-3118155d-6221-41bd-ad05-2e85ca7efbf8 .centered{text-anchor:middle}#chart-3118155d-6221-41bd-ad05-2e85ca7efbf8 .title{text-anchor:middle}#chart-3118155d-6221-41bd-ad05-2e85ca7efbf8 .legends .legend text{fill-opacity:1}#chart-3118155d-6221-41bd-ad05-2e85ca7efbf8 .axis.x text{text-anchor:middle}#chart-3118155d-6221-41bd-ad05-2e85ca7efbf8 .axis.x:not(.web) text[transform]{text-anchor:start}#chart-3118155d-6221-41bd-ad05-2e85ca7efbf8 .axis.x:not(.web) text[transform].backwards{text-anchor:end}#chart-3118155d-6221-41bd-ad05-2e85ca7efbf8 .axis.y text{text-anchor:end}#chart-3118155d-6221-41bd-ad05-2e85ca7efbf8 .axis.y text[transform].backwards{text-anchor:start}#chart-3118155d-6221-41bd-ad05-2e85ca7efbf8 .axis.y2 text{text-anchor:start}#chart-3118155d-6221-41bd-ad05-2e85ca7efbf8 .axis.y2 text[transform].backwards{text-anchor:end}#chart-3118155d-6221-41bd-ad05-2e85ca7efbf8 .axis .guide.line{stroke-dasharray:4,4}#chart-3118155d-6221-41bd-ad05-2e85ca7efbf8 .axis .major.guide.line{stroke-dasharray:6,6}#chart-3118155d-6221-41bd-ad05-2e85ca7efbf8 .horizontal .axis.y .guide.line,#chart-3118155d-6221-41bd-ad05-2e85ca7efbf8 .horizontal .axis.y2 .guide.line,#chart-3118155d-6221-41bd-ad05-2e85ca7efbf8 .vertical .axis.x .guide.line{opacity:0}#chart-3118155d-6221-41bd-ad05-2e85ca7efbf8 .horizontal .axis.always_show .guide.line,#chart-3118155d-6221-41bd-ad05-2e85ca7efbf8 .vertical .axis.always_show .guide.line{opacity:1 !important}#chart-3118155d-6221-41bd-ad05-2e85ca7efbf8 .axis.y .guides:hover .guide.line,#chart-3118155d-6221-41bd-ad05-2e85ca7efbf8 .axis.y2 .guides:hover .guide.line,#chart-3118155d-6221-41bd-ad05-2e85ca7efbf8 .axis.x .guides:hover .guide.line{opacity:1}#chart-3118155d-6221-41bd-ad05-2e85ca7efbf8 .axis .guides:hover text{opacity:1}#chart-3118155d-6221-41bd-ad05-2e85ca7efbf8 .nofill{fill:none}#chart-3118155d-6221-41bd-ad05-2e85ca7efbf8 .subtle-fill{fill-opacity:.2}#chart-3118155d-6221-41bd-ad05-2e85ca7efbf8 .dot{stroke-width:1px;fill-opacity:1}#chart-3118155d-6221-41bd-ad05-2e85ca7efbf8 .dot.active{stroke-width:5px}#chart-3118155d-6221-41bd-ad05-2e85ca7efbf8 .dot.negative{fill:transparent}#chart-3118155d-6221-41bd-ad05-2e85ca7efbf8 text,#chart-3118155d-6221-41bd-ad05-2e85ca7efbf8 tspan{stroke:none !important}#chart-3118155d-6221-41bd-ad05-2e85ca7efbf8 .series text.active{opacity:1}#chart-3118155d-6221-41bd-ad05-2e85ca7efbf8 .tooltip rect{fill-opacity:.95;stroke-width:.5}#chart-3118155d-6221-41bd-ad05-2e85ca7efbf8 .tooltip text{fill-opacity:1}#chart-3118155d-6221-41bd-ad05-2e85ca7efbf8 .showable{visibility:hidden}#chart-3118155d-6221-41bd-ad05-2e85ca7efbf8 .showable.shown{visibility:visible}#chart-3118155d-6221-41bd-ad05-2e85ca7efbf8 .gauge-background{fill:rgba(229,229,229,1);stroke:none}#chart-3118155d-6221-41bd-ad05-2e85ca7efbf8 .bg-lines{stroke:rgba(249,249,249,1);stroke-width:2px}</style><script type="text/javascript">window.pygal = window.pygal || {};window.pygal.config = window.pygal.config || {};window.pygal.config['3118155d-6221-41bd-ad05-2e85ca7efbf8'] = {"allow_interruptions": false, "box_mode": "extremes", "classes": ["pygal-chart"], "css": ["file://style.css", "file://graph.css"], "defs": [], "disable_xml_declaration": false, "dots_size": 2.5, "dynamic_print_values": false, "explicit_size": false, "fill": true, "force_uri_protocol": "https", "formatter": null, "half_pie": false, "height": 600, "include_x_axis": false, "inner_radius": 0, "interpolate": null, "interpolation_parameters": {}, "interpolation_precision": 250, "inverse_y_axis": false, "js": ["//kozea.github.io/pygal.js/2.0.x/pygal-tooltips.min.js"], "legend_at_bottom": false, "legend_at_bottom_columns": null, "legend_box_size": 12, "logarithmic": false, "margin": 20, "margin_bottom": null, "margin_left": null, "margin_right": null, "margin_top": null, "max_scale": 16, "min_scale": 4, "missing_value_fill_truncation": "x", "no_data_text": "No data", "no_prefix": false, "order_min": null, "pretty_print": false, "print_labels": false, "print_values": false, "print_values_position": "center", "print_zeroes": true, "range": null, "rounded_bars": null, "secondary_range": null, "show_dots": false, "show_legend": true, "show_minor_x_labels": true, "show_minor_y_labels": true, "show_only_major_dots": false, "show_x_guides": false, "show_x_labels": true, "show_y_guides": true, "show_y_labels": true, "spacing": 10, "stack_from_top": false, "strict": false, "stroke": true, "stroke_style": null, "style": {"background": "rgba(249, 249, 249, 1)", "ci_colors": [], "colors": ["#F44336", "#3F51B5", "#009688", "#FFC107", "#FF5722", "#9C27B0", "#03A9F4", "#8BC34A", "#FF9800", "#E91E63", "#2196F3", "#4CAF50", "#FFEB3B", "#673AB7", "#00BCD4", "#CDDC39", "#9E9E9E", "#607D8B"], "font_family": "Consolas, \"Liberation Mono\", Menlo, Courier, monospace", "foreground": "rgba(0, 0, 0, .87)", "foreground_strong": "rgba(0, 0, 0, 1)", "foreground_subtle": "rgba(0, 0, 0, .54)", "guide_stroke_dasharray": "4,4", "label_font_family": "Consolas, \"Liberation Mono\", Menlo, Courier, monospace", "label_font_size": 10, "legend_font_family": "Consolas, \"Liberation Mono\", Menlo, Courier, monospace", "legend_font_size": 14, "major_guide_stroke_dasharray": "6,6", "major_label_font_family": "Consolas, \"Liberation Mono\", Menlo, Courier, monospace", "major_label_font_size": 10, "no_data_font_family": "Consolas, \"Liberation Mono\", Menlo, Courier, monospace", "no_data_font_size": 64, "opacity": ".7", "opacity_hover": ".8", "plot_background": "rgba(255, 255, 255, 1)", "stroke_opacity": ".8", "stroke_opacity_hover": ".9", "title_font_family": "Consolas, \"Liberation Mono\", Menlo, Courier, monospace", "title_font_size": 16, "tooltip_font_family": "Consolas, \"Liberation Mono\", Menlo, Courier, monospace", "tooltip_font_size": 14, "transition": "150ms", "value_background": "rgba(229, 229, 229, 1)", "value_colors": [], "value_font_family": "Consolas, \"Liberation Mono\", Menlo, Courier, monospace", "value_font_size": 16, "value_label_font_family": "Consolas, \"Liberation Mono\", Menlo, Courier, monospace", "value_label_font_size": 10}, "title": "\u0420\u0435\u0439\u0442\u0438\u043d\u0433 \u0432 \u0437\u0430\u0432\u0438\u0441\u0438\u043c\u043e\u0441\u0442\u0438 \u043a\u043e\u043b\u0438\u0447\u0435\u0441\u0442\u0432\u0430 \u0411\u0416\u0423", "tooltip_border_radius": 0, "tooltip_fancy_mode": true, "truncate_label": null, "truncate_legend": null, "width": 800, "x_label_rotation": 70, "x_labels": [0, "", 10, "", 20, "", 30, "", 40, "", 50, "", 60, "", 70, "", 80, "", 90, "", 100, "", 110, "", 120, "", 130, "", 140, "", 150, "", 160, "", 170, "", 180, "", 190, "", 200, "", 210, "", 220, "", 230, ""], "x_labels_major": null, "x_labels_major_count": null, "x_labels_major_every": null, "x_title": "\u0420\u0435\u0439\u0442\u0438\u043d\u0433", "xrange": null, "y_label_rotation": 0, "y_labels": null, "y_labels_major": null, "y_labels_major_count": null, "y_labels_major_every": null, "y_title": "\u0413\u0440\u0430\u043c\u043c \u0411\u0416\u0423 \u043d\u0430 100\u0433", "zero": 0, "legends": ["\u0411\u0435\u043b\u043a\u0438", "\u0416\u0438\u0440\u044b", "\u0423\u0433\u043b\u0435\u0432\u043e\u0434\u044b"]}</script><script type="text/javascript" xlink:href="https://kozea.github.io/pygal.js/2.0.x/pygal-tooltips.min.js"/></defs><title>Рейтинг в зависимости количества БЖУ</title><g class="graph stackedline-graph vertical"><rect x="0" y="0" width="800" height="600" class="background"/><g transform="translate(157, 46)" class="plot"><rect x="0" y="0" width="622.8" height="481.08553282585365" class="background"/><g class="axis y always_show"><path d="M0.000000 481.085533 h622.800000" class="line"/><g class="guides"><path d="M0.000000 470.516273 h622.800000" class="guide line"/><text x="-5" y="474.0162730454047" class="">6</text><title>6</title></g><g class="guides"><path d="M0.000000 423.985643 h622.800000" class="guide line"/><text x="-5" y="427.4856433551531" class="">8</text><title>8</title></g><g class="guides"><path d="M0.000000 377.455014 h622.800000" class="major guide line"/><text x="-5" y="380.9550136649015" class="major">10</text><title>10</title></g><g class="guides"><path d="M0.000000 330.924384 h622.800000" class="guide line"/><text x="-5" y="334.4243839746499" class="">12</text><title>12</title></g><g class="guides"><path d="M0.000000 284.393754 h622.800000" class="guide line"/><text x="-5" y="287.89375428439837" class="">14</text><title>14</title></g><g class="guides"><path d="M0.000000 237.863125 h622.800000" class="guide line"/><text x="-5" y="241.36312459414674" class="">16</text><title>16</title></g><g class="guides"><path d="M0.000000 191.332495 h622.800000" class="guide line"/><text x="-5" y="194.83249490389517" class="">18</text><title>18</title></g><g class="guides"><path d="M0.000000 144.801865 h622.800000" class="major guide line"/><text x="-5" y="148.30186521364357" class="major">20</text><title>20</title></g><g class="guides"><path d="M0.000000 98.271236 h622.800000" class="guide line"/><text x="-5" y="101.77123552339191" class="">22</text><title>22</title></g><g class="guides"><path d="M0.000000 51.740606 h622.800000" class="guide line"/><text x="-5" y="55.240605833140364" class="">24</text><title>24</title></g></g><g class="axis x"><g class="guides"><path d="M11.976923 0.000000 v481.085533" class="axis line"/><text x="11.976923076923075" y="496.08553282585365" class="" transform="rotate(70 11.976923 496.085533)">0</text></g><g class="guides"><path d="M24.718331 0.000000 v481.085533" class="guide line"/><text x="24.718330605564645" y="496.08553282585365" class="" transform="rotate(70 24.718331 496.085533)"></text></g><g class="guides"><path d="M37.459738 0.000000 v481.085533" class="guide line"/><text x="37.45973813420621" y="496.08553282585365" class="" transform="rotate(70 37.459738 496.085533)">10</text></g><g class="guides"><path d="M50.201146 0.000000 v481.085533" class="guide line"/><text x="50.201145662847786" y="496.08553282585365" class="" transform="rotate(70 50.201146 496.085533)"></text></g><g class="guides"><path d="M62.942553 0.000000 v481.085533" class="guide line"/><text x="62.94255319148935" y="496.08553282585365" class="" transform="rotate(70 62.942553 496.085533)">20</text></g><g class="guides"><path d="M75.683961 0.000000 v481.085533" class="guide line"/><text x="75.68396072013093" y="496.08553282585365" class="" transform="rotate(70 75.683961 496.085533)"></text></g><g class="guides"><path d="M88.425368 0.000000 v481.085533" class="guide line"/><text x="88.42536824877249" y="496.08553282585365" class="" transform="rotate(70 88.425368 496.085533)">30</text></g><g class="guides"><path d="M101.166776 0.000000 v481.085533" class="guide line"/><text x="101.16677577741406" y="496.08553282585365" class="" transform="rotate(70 101.166776 496.085533)"></text></g><g class="guides"><path d="M113.908183 0.000000 v481.085533" class="guide line"/><text x="113.90818330605562" y="496.08553282585365" class="" transform="rotate(70 113.908183 496.085533)">40</text></g><g class="guides"><path d="M126.649591 0.000000 v481.085533" class="guide line"/><text x="126.64959083469721" y="496.08553282585365" class="" transform="rotate(70 126.649591 496.085533)"></text></g><g class="guides"><path d="M139.390998 0.000000 v481.085533" class="guide line"/><text x="139.39099836333875" y="496.08553282585365" class="" transform="rotate(70 139.390998 496.085533)">50</text></g><g class="guides"><path d="M152.132406 0.000000 v481.085533" class="guide line"/><text x="152.13240589198037" y="496.08553282585365" class="" transform="rotate(70 152.132406 496.085533)"></text></g><g class="guides"><path d="M164.873813 0.000000 v481.085533" class="guide line"/><text x="164.87381342062193" y="496.08553282585365" class="" transform="rotate(70 164.873813 496.085533)">60</text></g><g class="guides"><path d="M177.615221 0.000000 v481.085533" class="guide line"/><text x="177.6152209492635" y="496.08553282585365" class="" transform="rotate(70 177.615221 496.085533)"></text></g><g class="guides"><path d="M190.356628 0.000000 v481.085533" class="guide line"/><text x="190.35662847790505" y="496.08553282585365" class="" transform="rotate(70 190.356628 496.085533)">70</text></g><g class="guides"><path d="M203.098036 0.000000 v481.085533" class="guide line"/><text x="203.09803600654664" y="496.08553282585365" class="" transform="rotate(70 203.098036 496.085533)"></text></g><g class="guides"><path d="M215.839444 0.000000 v481.085533" class="guide line"/><text x="215.8394435351882" y="496.08553282585365" class="" transform="rotate(70 215.839444 496.085533)">80</text></g><g class="guides"><path d="M228.580851 0.000000 v481.085533" class="guide line"/><text x="228.58085106382978" y="496.08553282585365" class="" transform="rotate(70 228.580851 496.085533)"></text></g><g class="guides"><path d="M241.322259 0.000000 v481.085533" class="guide line"/><text x="241.32225859247134" y="496.08553282585365" class="" transform="rotate(70 241.322259 496.085533)">90</text></g><g class="guides"><path d="M254.063666 0.000000 v481.085533" class="guide line"/><text x="254.0636661211129" y="496.08553282585365" class="" transform="rotate(70 254.063666 496.085533)"></text></g><g class="guides"><path d="M266.805074 0.000000 v481.085533" class="guide line"/><text x="266.8050736497545" y="496.08553282585365" class="" transform="rotate(70 266.805074 496.085533)">100</text></g><g class="guides"><path d="M279.546481 0.000000 v481.085533" class="guide line"/><text x="279.54648117839605" y="496.08553282585365" class="" transform="rotate(70 279.546481 496.085533)"></text></g><g class="guides"><path d="M292.287889 0.000000 v481.085533" class="guide line"/><text x="292.2878887070376" y="496.08553282585365" class="" transform="rotate(70 292.287889 496.085533)">110</text></g><g class="guides"><path d="M305.029296 0.000000 v481.085533" class="guide line"/><text x="305.02929623567917" y="496.08553282585365" class="" transform="rotate(70 305.029296 496.085533)"></text></g><g class="guides"><path d="M317.770704 0.000000 v481.085533" class="guide line"/><text x="317.77070376432073" y="496.08553282585365" class="" transform="rotate(70 317.770704 496.085533)">120</text></g><g class="guides"><path d="M330.512111 0.000000 v481.085533" class="guide line"/><text x="330.51211129296235" y="496.08553282585365" class="" transform="rotate(70 330.512111 496.085533)"></text></g><g class="guides"><path d="M343.253519 0.000000 v481.085533" class="guide line"/><text x="343.25351882160396" y="496.08553282585365" class="" transform="rotate(70 343.253519 496.085533)">130</text></g><g class="guides"><path d="M355.994926 0.000000 v481.085533" class="guide line"/><text x="355.9949263502455" y="496.08553282585365" class="" transform="rotate(70 355.994926 496.085533)"></text></g><g class="guides"><path d="M368.736334 0.000000 v481.085533" class="guide line"/><text x="368.736333878887" y="496.08553282585365" class="" transform="rotate(70 368.736334 496.085533)">140</text></g><g class="guides"><path d="M381.477741 0.000000 v481.085533" class="guide line"/><text x="381.4777414075286" y="496.08553282585365" class="" transform="rotate(70 381.477741 496.085533)"></text></g><g class="guides"><path d="M394.219149 0.000000 v481.085533" class="guide line"/><text x="394.2191489361702" y="496.08553282585365" class="" transform="rotate(70 394.219149 496.085533)">150</text></g><g class="guides"><path d="M406.960556 0.000000 v481.085533" class="guide line"/><text x="406.96055646481176" y="496.08553282585365" class="" transform="rotate(70 406.960556 496.085533)"></text></g><g class="guides"><path d="M419.701964 0.000000 v481.085533" class="guide line"/><text x="419.7019639934533" y="496.08553282585365" class="" transform="rotate(70 419.701964 496.085533)">160</text></g><g class="guides"><path d="M432.443372 0.000000 v481.085533" class="guide line"/><text x="432.44337152209494" y="496.08553282585365" class="" transform="rotate(70 432.443372 496.085533)"></text></g><g class="guides"><path d="M445.184779 0.000000 v481.085533" class="guide line"/><text x="445.1847790507365" y="496.08553282585365" class="" transform="rotate(70 445.184779 496.085533)">170</text></g><g class="guides"><path d="M457.926187 0.000000 v481.085533" class="guide line"/><text x="457.926186579378" y="496.08553282585365" class="" transform="rotate(70 457.926187 496.085533)"></text></g><g class="guides"><path d="M470.667594 0.000000 v481.085533" class="guide line"/><text x="470.66759410801956" y="496.08553282585365" class="" transform="rotate(70 470.667594 496.085533)">180</text></g><g class="guides"><path d="M483.409002 0.000000 v481.085533" class="guide line"/><text x="483.4090016366612" y="496.08553282585365" class="" transform="rotate(70 483.409002 496.085533)"></text></g><g class="guides"><path d="M496.150409 0.000000 v481.085533" class="guide line"/><text x="496.15040916530273" y="496.08553282585365" class="" transform="rotate(70 496.150409 496.085533)">190</text></g><g class="guides"><path d="M508.891817 0.000000 v481.085533" class="guide line"/><text x="508.89181669394424" y="496.08553282585365" class="" transform="rotate(70 508.891817 496.085533)"></text></g><g class="guides"><path d="M521.633224 0.000000 v481.085533" class="guide line"/><text x="521.6332242225859" y="496.08553282585365" class="" transform="rotate(70 521.633224 496.085533)">200</text></g><g class="guides"><path d="M534.374632 0.000000 v481.085533" class="guide line"/><text x="534.3746317512274" y="496.08553282585365" class="" transform="rotate(70 534.374632 496.085533)"></text></g><g class="guides"><path d="M547.116039 0.000000 v481.085533" class="guide line"/><text x="547.1160392798689" y="496.08553282585365" class="" transform="rotate(70 547.116039 496.085533)">210</text></g><g class="guides"><path d="M559.857447 0.000000 v481.085533" class="guide line"/><text x="559.8574468085106" y="496.08553282585365" class="" transform="rotate(70 559.857447 496.085533)"></text></g><g class="guides"><path d="M572.598854 0.000000 v481.085533" class="guide line"/><text x="572.5988543371521" y="496.08553282585365" class="" transform="rotate(70 572.598854 496.085533)">220</text></g><g class="guides"><path d="M585.340262 0.000000 v481.085533" class="guide line"/><text x="585.3402618657938" y="496.08553282585365" class="" transform="rotate(70 585.340262 496.085533)"></text></g><g class="guides"><path d="M598.081669 0.000000 v481.085533" class="guide line"/><text x="598.0816693944353" y="496.08553282585365" class="" transform="rotate(70 598.081669 496.085533)">230</text></g><g class="guides"><path d="M610.823077 0.000000 v481.085533" class="guide line"/><text x="610.8230769230769" y="496.08553282585365" class="" transform="rotate(70 610.823077 496.085533)"></text></g></g><g class="series serie-0 color-0"><path d="M11.976923 481.085533 L11.976923 466.071760 24.718331 466.062002 37.459738 466.347036 50.201146 466.374304 62.942553 466.396918 75.683961 466.427150 88.425368 466.403328 101.166776 466.427202 113.908183 466.644747 126.649591 467.005842 139.390998 467.426285 152.132406 468.252872 164.873813 468.414667 177.615221 468.201358 190.356628 467.953392 203.098036 467.734423 215.839444 467.695406 228.580851 468.170364 241.322259 468.186954 254.063666 468.107543 266.805074 468.035052 279.546481 467.612538 292.287889 467.740543 305.029296 467.538874 317.770704 468.224096 330.512111 468.904428 343.253519 468.655447 355.994926 468.959843 368.736334 468.948323 381.477741 469.944688 394.219149 470.074620 406.960556 471.135604 419.701964 471.241320 432.443372 471.833888 445.184779 471.555267 457.926187 470.213658 470.667594 469.896163 483.409002 469.245734 496.150409 468.779027 508.891817 467.118062 521.633224 466.717288 534.374632 466.266281 547.116039 464.980985 559.857447 463.535209 572.598854 462.200632 585.340262 462.567894 598.081669 462.207232 610.823077 461.551152 610.823077 481.085533" class="line reactive"/></g><g class="series serie-1 color-1"><path d="M11.976923 286.706406 L24.718331 285.718286 37.459738 284.257667 50.201146 281.702050 62.942553 278.936392 75.683961 275.796224 88.425368 273.269222 101.166776 270.738059 113.908183 267.633980 126.649591 265.203873 139.390998 262.281189 152.132406 261.095300 164.873813 258.807234 177.615221 256.803148 190.356628 256.167085 203.098036 253.740086 215.839444 251.449078 228.580851 250.212102 241.322259 249.882550 254.063666 249.389935 266.805074 247.379628 279.546481 246.862265 292.287889 247.472711 305.029296 246.761516 317.770704 246.491172 330.512111 248.121152 343.253519 247.297078 355.994926 249.418329 368.736334 246.557387 381.477741 247.155854 394.219149 248.212534 406.960556 249.318061 419.701964 247.468550 432.443372 248.862072 445.184779 248.164783 457.926187 244.729599 470.667594 245.528575 483.409002 244.048442 496.150409 245.210066 508.891817 241.385661 521.633224 242.235192 534.374632 238.855138 547.116039 238.486303 559.857447 236.393427 572.598854 236.015204 585.340262 240.279045 598.081669 241.322399 610.823077 241.823178 610.823077 461.551152 598.081669 462.207232 585.340262 462.567894 572.598854 462.200632 559.857447 463.535209 547.116039 464.980985 534.374632 466.266281 521.633224 466.717288 508.891817 467.118062 496.150409 468.779027 483.409002 469.245734 470.667594 469.896163 457.926187 470.213658 445.184779 471.555267 432.443372 471.833888 419.701964 471.241320 406.960556 471.135604 394.219149 470.074620 381.477741 469.944688 368.736334 468.948323 355.994926 468.959843 343.253519 468.655447 330.512111 468.904428 317.770704 468.224096 305.029296 467.538874 292.287889 467.740543 279.546481 467.612538 266.805074 468.035052 254.063666 468.107543 241.322259 468.186954 228.580851 468.170364 215.839444 467.695406 203.098036 467.734423 190.356628 467.953392 177.615221 468.201358 164.873813 468.414667 152.132406 468.252872 139.390998 467.426285 126.649591 467.005842 113.908183 466.644747 101.166776 466.427202 88.425368 466.403328 75.683961 466.427150 62.942553 466.396918 50.201146 466.374304 37.459738 466.347036 24.718331 466.062002 11.976923 466.071760" class="line reactive"/></g><g class="series serie-2 color-2"><path d="M11.976923 107.341052 L24.718331 105.374569 37.459738 102.168299 50.201146 97.029796 62.942553 91.475866 75.683961 85.165297 88.425368 80.135116 101.166776 75.048916 113.908183 68.623213 126.649591 63.401904 139.390998 57.136092 152.132406 53.937729 164.873813 49.199802 177.615221 45.404939 190.356628 44.380777 203.098036 39.745749 215.839444 35.202750 228.580851 32.253840 241.322259 31.578146 254.063666 30.672327 266.805074 26.724205 279.546481 26.111992 292.287889 27.204879 305.029296 25.984157 317.770704 24.758247 330.512111 27.337876 343.253519 25.938709 355.994926 29.876816 368.736334 24.166451 381.477741 24.367020 394.219149 26.350448 406.960556 27.500517 419.701964 23.695780 432.443372 25.890256 445.184779 24.774300 457.926187 19.245539 470.667594 21.160987 483.409002 18.851150 496.150409 21.641105 508.891817 15.653260 521.633224 17.753096 534.374632 11.443995 547.116039 11.991620 559.857447 9.251645 572.598854 9.829777 585.340262 17.990196 598.081669 20.437566 610.823077 22.095205 610.823077 241.823178 598.081669 241.322399 585.340262 240.279045 572.598854 236.015204 559.857447 236.393427 547.116039 238.486303 534.374632 238.855138 521.633224 242.235192 508.891817 241.385661 496.150409 245.210066 483.409002 244.048442 470.667594 245.528575 457.926187 244.729599 445.184779 248.164783 432.443372 248.862072 419.701964 247.468550 406.960556 249.318061 394.219149 248.212534 381.477741 247.155854 368.736334 246.557387 355.994926 249.418329 343.253519 247.297078 330.512111 248.121152 317.770704 246.491172 305.029296 246.761516 292.287889 247.472711 279.546481 246.862265 266.805074 247.379628 254.063666 249.389935 241.322259 249.882550 228.580851 250.212102 215.839444 251.449078 203.098036 253.740086 190.356628 256.167085 177.615221 256.803148 164.873813 258.807234 152.132406 261.095300 139.390998 262.281189 126.649591 265.203873 113.908183 267.633980 101.166776 270.738059 88.425368 273.269222 75.683961 275.796224 62.942553 278.936392 50.201146 281.702050 37.459738 284.257667 24.718331 285.718286 11.976923 286.706406" class="line reactive"/></g></g><g class="titles"><text x="400.0" y="26" class="title plot_title">Рейтинг в зависимости количества БЖУ</text><text x="468.59999999999997" y="580.0" class="title">Рейтинг</text><text x="89.2" y="312.5427664129268" class="title" transform="rotate(-90 89.200000 286.542766)">Грамм БЖУ на 100г</text></g><g transform="translate(157, 46)" class="plot overlay"><g class="series serie-0 color-0"/><g class="series serie-1 color-1"/><g class="series serie-2 color-2"/></g><g transform="translate(157, 46)" class="plot text-overlay"><g class="series serie-0 color-0"/><g class="series serie-1 color-1"/><g class="series serie-2 color-2"/></g><g transform="translate(157, 46)" class="plot tooltip-overlay"><g transform="translate(0 0)" style="opacity: 0" class="tooltip"><rect rx="0" ry="0" width="0" height="0" class="tooltip-box"/><g class="text"/></g></g><g transform="translate(10, 56)" class="legends"><g id="activate-serie-0" class="legend reactive activate-serie"><rect x="0.0" y="1.0" width="12" height="12" class="color-0 reactive"/><text x="17.0" y="11.2">Белки</text></g><g id="activate-serie-1" class="legend reactive activate-serie"><rect x="0.0" y="22.0" width="12" height="12" class="color-1 reactive"/><text x="17.0" y="32.2">Жиры</text></g><g id="activate-serie-2" class="legend reactive activate-serie"><rect x="0.0" y="43.0" width="12" height="12" class="color-2 reactive"/><text x="17.0" y="53.2">Углеводы</text></g></g><g transform="translate(790, 56)" class="legends"/></g></svg>